# File created by Blade
# Date/Time:  Wed Apr 08 17:31:39 2015
# Frame Rate: 120.000 fps
#------------------------------------------------------
:FULLY-SPECIFIED
:DEGREES
809
root 0.410337 22.726984 0.648479 -741.627232 -65.820503 563.639461
Spine 206.792162 -6.079336 -5.621885
Head 17.975406 3.172976 4.141154
LeftShoulder -5.269967 22.059943 25.709284
LeftArm 20.472628 2.859708 -78.805100
LeftForeArm 16.963698 -0.000000 40.724179
LeftHand -12.479663 -0.000000 -1.839478
LeftHandThumb1 -26.253704 0.000000 33.147579
RightShoulder -27.137577 -52.340205 -6.926508
RightArm 55.061423 -6.576926 38.732121
RightForeArm 6.520552 -0.000000 29.411424
RightHand 4.366297 -0.000000 2.714023
RightHandThumb1 -24.326973 -0.000000 -32.862282
LeftUpLeg 131.819823 -23.714527 -23.400572
LeftLeg 122.933884 -0.000000 -0.000000
LeftFoot -30.525311 1.071189 -12.127372
LeftToeBase -26.798022 -0.000000 0.000000
RightUpLeg 125.424873 32.539404 5.479645
RightLeg 108.564213 -0.000000 -0.000000
RightFoot -38.289783 29.404509 -7.684283
RightToeBase -0.940234 -0.000000 0.000000
810
root 0.439945 22.736753 0.632319 -741.813061 -66.195701 563.650776
Spine 206.998150 -5.931923 -5.556883
Head 17.948281 3.176855 4.201895
LeftShoulder -5.160805 21.942241 25.792054
LeftArm 20.608946 2.580242 -78.513892
LeftForeArm 16.719721 -0.000000 40.727027
LeftHand -12.596951 0.000000 -1.551447
LeftHandThumb1 -26.253704 0.000000 33.147579
RightShoulder -27.215184 -52.355654 -6.859942
RightArm 55.036921 -6.508447 38.746364
RightForeArm 6.555361 -0.000000 29.430031
RightHand 4.409591 -0.000000 2.608042
RightHandThumb1 -24.326973 -0.000000 -32.862282
LeftUpLeg 131.874144 -23.656316 -23.409267
LeftLeg 122.781273 -0.000000 -0.000000
LeftFoot -30.510198 0.699098 -12.061157
LeftToeBase -27.049911 -0.000000 0.000000
RightUpLeg 125.685427 32.582535 5.687043
RightLeg 108.582430 -0.000000 -0.000000
RightFoot -38.387541 29.254194 -7.542490
RightToeBase -0.945652 -0.000000 0.000000
811
root 0.467969 22.748452 0.619109 -741.889925 -66.563693 563.584218
Spine 207.183703 -5.779456 -5.479056
Head 17.891293 3.156406 4.216830
LeftShoulder -5.059990 21.827906 25.852186
LeftArm 20.747046 2.236315 -78.271261
LeftForeArm 16.582456 -0.000000 40.710209
LeftHand -12.671196 -0.000000 -1.586032
LeftHandThumb1 -26.253704 0.000000 33.147579
RightShoulder -27.235124 -52.350831 -6.870526
RightArm 55.005687 -6.444315 38.754832
RightForeArm 6.671447 -0.000000 29.456638
RightHand 4.391998 -0.000000 2.541720
RightHandThumb1 -24.326973 -0.000000 -32.862282
LeftUpLeg 131.915242 -23.691568 -23.391137
LeftLeg 122.616579 -0.000000 -0.000000
LeftFoot -30.483146 0.322570 -11.896601
LeftToeBase -27.319133 -0.000000 0.000000
RightUpLeg 125.909715 32.605156 5.902845
RightLeg 108.588937 -0.000000 -0.000000
RightFoot -38.482962 29.127503 -7.375212
RightToeBase -0.924981 -0.000000 0.000000
812
root 0.494075 22.760806 0.603526 -741.855476 -66.939094 563.432056
Spine 207.347442 -5.653905 -5.384377
Head 17.834333 3.111703 4.210419
LeftShoulder -4.931029 21.702995 25.906800
LeftArm 20.861659 1.946228 -77.981668
LeftForeArm 16.383880 0.000000 40.729182
LeftHand -12.695271 -0.000000 -1.560024
LeftHandThumb1 -26.253704 0.000000 33.147579
RightShoulder -27.317091 -52.362663 -6.824005
RightArm 54.983537 -6.351668 38.744859
RightForeArm 6.707641 0.000000 29.518645
RightHand 4.348336 -0.000000 2.338853
RightHandThumb1 -24.326973 -0.000000 -32.862282
LeftUpLeg 131.923095 -23.753552 -23.330603
LeftLeg 122.451437 -0.000000 -0.000000
LeftFoot -30.426515 -0.040976 -11.718225
LeftToeBase -27.505032 -0.000000 0.000000
RightUpLeg 126.089049 32.657203 6.122145
RightLeg 108.610914 -0.000000 -0.000000
RightFoot -38.592306 28.961794 -7.255190
RightToeBase -0.946810 -0.000000 0.000000
813
root 0.520052 22.773861 0.590730 -741.837351 -67.316366 563.310828
Spine 207.510335 -5.463520 -5.273978
Head 17.768388 3.164516 4.202122
LeftShoulder -4.852802 21.546857 25.988669
LeftArm 20.947481 1.596714 -77.812710
LeftForeArm 16.280686 -0.000000 40.668001
LeftHand -12.603342 -0.000000 -1.727840
LeftHandThumb1 -26.253704 0.000000 33.147579
RightShoulder -27.292579 -52.346431 -6.864472
RightArm 54.973204 -6.253571 38.716235
RightForeArm 6.720027 -0.000000 29.545684
RightHand 4.368512 -0.000000 2.076285
RightHandThumb1 -24.326973 -0.000000 -32.862282
LeftUpLeg 131.904035 -23.823373 -23.255527
LeftLeg 122.290798 -0.000000 -0.000000
LeftFoot -30.371007 -0.356105 -11.530935
LeftToeBase -27.634647 -0.000000 0.000000
RightUpLeg 126.250251 32.739884 6.334870
RightLeg 108.635178 -0.000000 -0.000000
RightFoot -38.653768 28.844652 -7.127976
RightToeBase -0.960944 -0.000000 0.000000
814
root 0.544731 22.787199 0.575556 -741.785500 -67.708172 563.174614
Spine 207.649325 -5.292662 -5.160561
Head 17.713640 3.130095 4.201233
LeftShoulder -4.715436 21.363636 26.098573
LeftArm 20.997515 1.262124 -77.638691
LeftForeArm 16.183546 -0.000000 40.635988
LeftHand -12.726087 -0.000000 -1.656898
LeftHandThumb1 -26.253704 0.000000 33.147579
RightShoulder -27.292934 -52.313467 -6.899309
RightArm 54.968300 -6.162041 38.717317
RightForeArm 6.675252 -0.000000 29.536976
RightHand 4.391246 -0.000000 2.175920
RightHandThumb1 -24.326973 -0.000000 -32.862282
LeftUpLeg 131.877638 -23.903374 -23.185571
LeftLeg 122.126699 -0.000000 -0.000000
LeftFoot -30.319735 -0.735238 -11.327216
LeftToeBase -27.793097 -0.000000 0.000000
RightUpLeg 126.380658 32.853572 6.545933
RightLeg 108.676557 -0.000000 -0.000000
RightFoot -38.692541 28.719330 -7.017062
RightToeBase -0.976329 -0.000000 0.000000
815
root 0.568245 22.799939 0.561777 -741.789813 -68.083129 563.096356
Spine 207.792217 -5.116210 -5.062112
Head 17.662812 3.107596 4.193572
LeftShoulder -4.600780 21.198456 26.214392
LeftArm 21.075734 0.935902 -77.477260
LeftForeArm 16.011712 -0.000000 40.557799
LeftHand -12.776849 -0.000000 -1.583339
LeftHandThumb1 -26.253704 0.000000 33.147579
RightShoulder -27.208422 -52.260492 -7.002597
RightArm 54.927208 -6.115607 38.728766
RightForeArm 6.625518 0.000000 29.559910
RightHand 4.278065 0.000000 2.184922
RightHandThumb1 -24.326973 -0.000000 -32.862282
LeftUpLeg 131.844971 -24.000612 -23.119781
LeftLeg 121.966350 -0.000000 -0.000000
LeftFoot -30.294851 -1.015149 -11.080393
LeftToeBase -27.872714 -0.000000 0.000000
RightUpLeg 126.509654 32.985200 6.743037
RightLeg 108.716780 -0.000000 -0.000000
RightFoot -38.677640 28.654345 -6.892168
RightToeBase -0.999802 -0.000000 0.000000
